<svg width="20" height="20" viewBox="0 0 20 20" fill="none" xmlns="http://www.w3.org/2000/svg">
<path d="M8.38745 3.96533V1.96533C8.38745 1.41305 8.83517 0.965332 9.38745 0.965332H14.9732C15.2385 0.965332 15.4928 1.07069 15.6803 1.25822L19.0946 4.67244C19.2821 4.85997 19.3875 5.11433 19.3875 5.37955V14.9653C19.3875 15.5176 18.9397 15.9653 18.3875 15.9653L12.3875 15.9653M12.3875 8.96533L8.38745 8.96533C7.83517 8.96533 7.38745 8.51762 7.38745 7.96533V3.96533M19.3875 5.96533L15.3875 5.96533C14.8352 5.96533 14.3875 5.51762 14.3875 4.96533V0.965332M2.38745 18.9653L11.3875 18.9653C11.9397 18.9653 12.3875 18.5176 12.3875 17.9653V8.37955C12.3875 8.11433 12.2821 7.85997 12.0946 7.67244L8.68035 4.25822C8.49281 4.07069 8.23846 3.96533 7.97324 3.96533L2.38745 3.96533C1.83517 3.96533 1.38745 4.41305 1.38745 4.96533L1.38745 17.9653C1.38745 18.5176 1.83517 18.9653 2.38745 18.9653Z" stroke="white" stroke-linecap="round" stroke-linejoin="round"/>
</svg>
