<svg width="14" height="17" viewBox="0 0 14 17" fill="none" xmlns="http://www.w3.org/2000/svg">
<path d="M5.3359 12.2641H1.16924V16.4307M13.1839 11.4281C12.7167 12.5845 11.9344 13.5867 10.926 14.3207C9.91753 15.0547 8.72341 15.4911 7.47933 15.5803C6.23525 15.6695 4.9911 15.4079 3.88829 14.8252C2.78549 14.2425 1.86825 13.3622 1.24085 12.2842M8.66924 5.59739H12.8359V1.43073M0.821342 6.43335C1.28858 5.2769 2.07087 4.27471 3.07929 3.5407C4.08772 2.80669 5.28184 2.3703 6.52592 2.28112C7.77 2.19195 9.01415 2.45356 10.117 3.03624C11.2198 3.61891 12.137 4.49927 12.7644 5.57726" stroke="#233146" stroke-linecap="round" stroke-linejoin="round"/>
</svg>
