<svg width="192" height="30" viewBox="0 0 192 30" fill="none" xmlns="http://www.w3.org/2000/svg">
<path d="M85.672 22.75V11.566L81.304 19.894H79.456L75.088 11.566V22.75H71.776V5.71H75.328L80.368 15.406L85.456 5.71H88.984V22.75H85.672ZM99.8136 22.87C98.5656 22.87 97.4296 22.63 96.4056 22.15C95.3976 21.67 94.5256 21.022 93.7896 20.206C93.0696 19.374 92.5096 18.446 92.1096 17.422C91.7096 16.382 91.5096 15.318 91.5096 14.23C91.5096 13.094 91.7176 12.014 92.1336 10.99C92.5656 9.95 93.1496 9.03 93.8856 8.23C94.6376 7.414 95.5176 6.774 96.5256 6.31C97.5496 5.83 98.6696 5.59 99.8856 5.59C101.118 5.59 102.238 5.838 103.246 6.334C104.27 6.83 105.142 7.494 105.862 8.326C106.582 9.158 107.142 10.086 107.542 11.11C107.942 12.134 108.142 13.19 108.142 14.278C108.142 15.398 107.934 16.478 107.518 17.518C107.102 18.542 106.518 19.462 105.766 20.278C105.03 21.078 104.15 21.71 103.126 22.174C102.118 22.638 101.014 22.87 99.8136 22.87ZM94.8696 14.23C94.8696 14.966 94.9816 15.678 95.2056 16.366C95.4296 17.054 95.7496 17.67 96.1656 18.214C96.5976 18.742 97.1176 19.166 97.7256 19.486C98.3496 19.79 99.0536 19.942 99.8376 19.942C100.638 19.942 101.35 19.782 101.974 19.462C102.598 19.126 103.118 18.686 103.534 18.142C103.95 17.582 104.262 16.966 104.47 16.294C104.694 15.606 104.806 14.918 104.806 14.23C104.806 13.494 104.686 12.79 104.446 12.118C104.222 11.43 103.894 10.822 103.462 10.294C103.046 9.75 102.526 9.326 101.902 9.022C101.294 8.702 100.606 8.542 99.8376 8.542C99.0216 8.542 98.3016 8.71 97.6776 9.046C97.0696 9.366 96.5576 9.798 96.1416 10.342C95.7256 10.886 95.4056 11.494 95.1816 12.166C94.9736 12.838 94.8696 13.526 94.8696 14.23ZM111.778 5.71L116.386 18.814L120.946 5.71H124.426L117.97 22.75H114.778L108.298 5.71H111.778ZM126.245 22.75V5.71H129.557V22.75H126.245ZM144.944 19.846V22.75H133.112V5.71H144.728V8.614H136.424V12.718H143.6V15.406H136.424V19.846H144.944ZM152.158 5.71H155.518L161.782 22.75H158.374L156.79 18.502H150.838L149.278 22.75H145.87L152.158 5.71ZM156.19 16.174L153.838 9.142L151.39 16.174H156.19ZM163.651 22.75V5.71H170.875C171.659 5.71 172.379 5.87 173.035 6.19C173.691 6.51 174.259 6.942 174.739 7.486C175.235 8.03 175.619 8.638 175.891 9.31C176.163 9.982 176.299 10.67 176.299 11.374C176.299 12.334 176.075 13.246 175.627 14.11C175.179 14.974 174.563 15.678 173.779 16.222C172.995 16.766 172.067 17.038 170.995 17.038H166.963V22.75H163.651ZM166.963 14.134H170.803C171.203 14.134 171.563 14.022 171.883 13.798C172.203 13.574 172.459 13.254 172.651 12.838C172.843 12.406 172.939 11.918 172.939 11.374C172.939 10.782 172.827 10.278 172.603 9.862C172.395 9.446 172.115 9.134 171.763 8.926C171.427 8.718 171.059 8.614 170.659 8.614H166.963V14.134ZM178.604 22.75V5.71H185.828C186.612 5.71 187.332 5.87 187.988 6.19C188.644 6.51 189.212 6.942 189.692 7.486C190.188 8.03 190.572 8.638 190.844 9.31C191.116 9.982 191.252 10.67 191.252 11.374C191.252 12.334 191.028 13.246 190.58 14.11C190.132 14.974 189.516 15.678 188.732 16.222C187.948 16.766 187.02 17.038 185.948 17.038H181.916V22.75H178.604ZM181.916 14.134H185.756C186.156 14.134 186.516 14.022 186.836 13.798C187.156 13.574 187.412 13.254 187.604 12.838C187.796 12.406 187.892 11.918 187.892 11.374C187.892 10.782 187.78 10.278 187.556 9.862C187.348 9.446 187.068 9.134 186.716 8.926C186.38 8.718 186.012 8.614 185.612 8.614H181.916V14.134Z" fill="#444444"/>
<rect width="60" height="30" rx="3" fill="url(#paint0_linear_1_19)"/>
<rect x="5" y="5" width="14" height="20" rx="1.5" fill="white"/>
<rect opacity="0.5" x="23" y="5" width="14" height="20" rx="1.5" fill="white"/>
<rect opacity="0.2" x="41" y="5" width="14" height="20" rx="1.5" fill="white"/>
<defs>
<linearGradient id="paint0_linear_1_19" x1="0" y1="15" x2="60" y2="15" gradientUnits="userSpaceOnUse">
<stop stop-color="#D4FC79"/>
<stop offset="1" stop-color="#96E6A1"/>
</linearGradient>
</defs>
</svg>
